<?xml version="1.0" encoding="UTF-8"?>
<svg width="512" height="512" viewBox="0 0 512 512" fill="none" xmlns="http://www.w3.org/2000/svg">
  <rect width="512" height="512" rx="128" fill="#4F46E5"/>
  <path d="M128 256C128 185.307 185.307 128 256 128C326.693 128 384 185.307 384 256C384 326.693 326.693 384 256 384C185.307 384 128 326.693 128 256Z" fill="white"/>
  <path d="M256 160C203.065 160 160 203.065 160 256C160 308.935 203.065 352 256 352C308.935 352 352 308.935 352 256C352 203.065 308.935 160 256 160ZM256 320C216.288 320 192 295.712 192 256C192 216.288 216.288 192 256 192C295.712 192 320 216.288 320 256C320 295.712 295.712 320 256 320Z" fill="#4F46E5"/>
  <path d="M256 224C238.327 224 224 238.327 224 256C224 273.673 238.327 288 256 288C273.673 288 288 273.673 288 256C288 238.327 273.673 224 256 224Z" fill="#4F46E5"/>
</svg> 